<svg xmlns="http://www.w3.org/2000/svg" width="1024" height="1024" viewBox="0 0 1024 1024">
  <defs>
    <linearGradient id="bg" x1="160" y1="80" x2="864" y2="944" gradientUnits="userSpaceOnUse">
      <stop offset="0" stop-color="#17324a"/>
      <stop offset="1" stop-color="#071018"/>
    </linearGradient>
    <linearGradient id="paper" x1="275" y1="178" x2="732" y2="842" gradientUnits="userSpaceOnUse">
      <stop offset="0" stop-color="#fffdf7"/>
      <stop offset="1" stop-color="#dfe8ee"/>
    </linearGradient>
    <linearGradient id="chip" x1="282" y1="318" x2="748" y2="714" gradientUnits="userSpaceOnUse">
      <stop offset="0" stop-color="#39d0b0"/>
      <stop offset="1" stop-color="#5b8cff"/>
    </linearGradient>
    <filter id="shadow" x="-20%" y="-20%" width="140%" height="140%">
      <feDropShadow dx="0" dy="28" stdDeviation="36" flood-color="#02070b" flood-opacity="0.42"/>
    </filter>
  </defs>

  <rect width="1024" height="1024" rx="224" fill="url(#bg)"/>
  <path d="M208 760c100 118 314 158 476 92 126-51 220-168 219-308-1-197-151-352-341-366-145-11-278 53-350 166-80 126-92 310-4 416z" fill="#254963" opacity="0.24"/>

  <g filter="url(#shadow)">
    <path d="M300 176h302l142 146v500c0 35-28 63-63 63H300c-35 0-63-28-63-63V239c0-35 28-63 63-63z" fill="url(#paper)"/>
    <path d="M604 178v109c0 30 24 54 54 54h86L604 178z" fill="#cbd8e2"/>
    <path d="M604 178v110c0 30 24 54 54 54h86" fill="none" stroke="#b3c3cf" stroke-width="14" stroke-linejoin="round"/>
  </g>

  <g fill="#8da1ae">
    <rect x="324" y="310" width="184" height="28" rx="14"/>
    <rect x="324" y="386" width="270" height="24" rx="12"/>
    <rect x="324" y="642" width="326" height="24" rx="12"/>
    <rect x="324" y="714" width="232" height="24" rx="12"/>
  </g>

  <g fill="url(#chip)">
    <rect x="324" y="474" width="376" height="70" rx="35"/>
    <rect x="324" y="554" width="252" height="70" rx="35"/>
  </g>

  <g fill="#0a1720">
    <circle cx="368" cy="509" r="9"/>
    <circle cx="400" cy="509" r="9"/>
    <circle cx="432" cy="509" r="9"/>
    <circle cx="368" cy="589" r="9"/>
    <circle cx="400" cy="589" r="9"/>
    <circle cx="432" cy="589" r="9"/>
  </g>

  <path d="M676 597c48 0 87 39 87 87s-39 87-87 87-87-39-87-87 39-87 87-87z" fill="#10283a" stroke="#39d0b0" stroke-width="24"/>
  <path d="M644 685l22 22 45-54" fill="none" stroke="#fffdf7" stroke-width="28" stroke-linecap="round" stroke-linejoin="round"/>
</svg>
